<svg xmlns="http://www.w3.org/2000/svg" xmlns:xlink="http://www.w3.org/1999/xlink" width="367" zoomAndPan="magnify" viewBox="0 0 275.25 274.5" height="366" preserveAspectRatio="xMidYMid meet" version="1.0"><defs><clipPath id="320d828d5a"><path d="M 0 0.125 L 81 0.125 L 81 81 L 0 81 Z M 0 0.125 " clip-rule="nonzero"/></clipPath><clipPath id="bddef4a3d3"><path d="M 192 0.125 L 273.753906 0.125 L 273.753906 81 L 192 81 Z M 192 0.125 " clip-rule="nonzero"/></clipPath><clipPath id="cd69ac0f46"><path d="M 0 192 L 81 192 L 81 273.128906 L 0 273.128906 Z M 0 192 " clip-rule="nonzero"/></clipPath><clipPath id="76d620f85a"><path d="M 60 0.125 L 183 0.125 L 183 152 L 60 152 Z M 60 0.125 " clip-rule="nonzero"/></clipPath><clipPath id="36143ab29f"><path d="M 162 0.125 L 183 0.125 L 183 21 L 162 21 Z M 162 0.125 " clip-rule="nonzero"/></clipPath><clipPath id="a86bcd3061"><path d="M 121 262 L 152 262 L 152 273.128906 L 121 273.128906 Z M 121 262 " clip-rule="nonzero"/></clipPath><clipPath id="e7d26fa216"><path d="M 90 242 L 122 242 L 122 273.128906 L 90 273.128906 Z M 90 242 " clip-rule="nonzero"/></clipPath><clipPath id="6c0c8793ee"><path d="M 172 121 L 273.753906 121 L 273.753906 233 L 172 233 Z M 172 121 " clip-rule="nonzero"/></clipPath><clipPath id="6f167295c0"><path d="M 152 233 L 193 233 L 193 273.128906 L 152 273.128906 Z M 152 233 " clip-rule="nonzero"/></clipPath><clipPath id="75bed9a23f"><path d="M 222 252 L 243 252 L 243 273.128906 L 222 273.128906 Z M 222 252 " clip-rule="nonzero"/></clipPath><clipPath id="5d793cdf8d"><path d="M 263 242.007812 L 273.617188 242.007812 L 273.617188 252.925781 L 263 252.925781 Z M 263 242.007812 " clip-rule="nonzero"/></clipPath><clipPath id="1aa6d785cc"><path d="M 263.386719 90.761719 L 273.617188 90.761719 L 273.617188 101.136719 L 263.386719 101.136719 Z M 263.386719 90.761719 " clip-rule="nonzero"/></clipPath></defs><path fill="#000000" d="M 60.308594 20.5 L 20.535156 20.5 L 20.535156 60.265625 L 60.308594 60.265625 L 60.308594 20.5 " fill-opacity="1" fill-rule="nonzero"/><g clip-path="url(#320d828d5a)"><path fill="#000000" d="M 70.496094 70.453125 L 10.34375 70.453125 L 10.34375 10.3125 L 70.496094 10.3125 Z M 80.6875 0.125 L 0.152344 0.125 L 0.152344 80.640625 L 80.6875 80.640625 L 80.6875 0.125 " fill-opacity="1" fill-rule="nonzero"/></g><path fill="#000000" d="M 252.785156 20.5 L 213.011719 20.5 L 213.011719 60.265625 L 252.785156 60.265625 L 252.785156 20.5 " fill-opacity="1" fill-rule="nonzero"/><g clip-path="url(#bddef4a3d3)"><path fill="#000000" d="M 262.972656 70.453125 L 202.824219 70.453125 L 202.824219 10.3125 L 262.972656 10.3125 Z M 273.164062 0.125 L 192.628906 0.125 L 192.628906 80.640625 L 273.164062 80.640625 L 273.164062 0.125 " fill-opacity="1" fill-rule="nonzero"/></g><path fill="#000000" d="M 20.535156 252.703125 L 60.308594 252.703125 L 60.308594 212.9375 L 20.535156 212.9375 L 20.535156 252.703125 " fill-opacity="1" fill-rule="nonzero"/><g clip-path="url(#cd69ac0f46)"><path fill="#000000" d="M 10.34375 202.75 L 70.496094 202.75 L 70.496094 262.886719 L 10.34375 262.886719 Z M 0.152344 273.078125 L 80.6875 273.078125 L 80.6875 192.558594 L 0.152344 192.558594 L 0.152344 273.078125 " fill-opacity="1" fill-rule="nonzero"/></g><g clip-path="url(#76d620f85a)"><path fill="#000000" d="M 121.515625 30.652344 L 121.515625 39.882812 L 131.707031 39.882812 L 131.707031 30.652344 L 141.738281 30.652344 L 141.738281 51.011719 L 131.574219 51.011719 L 131.574219 51.03125 L 121.402344 51.03125 L 121.402344 60.265625 L 111.230469 60.265625 L 111.230469 39.882812 L 101.039062 39.882812 L 101.039062 30.652344 Z M 151.910156 70.453125 L 131.574219 70.453125 L 131.574219 61.199219 L 141.746094 61.199219 L 141.746094 51.03125 L 151.910156 51.03125 Z M 90.847656 101.019531 L 60.308594 101.019531 L 60.308594 111.210938 L 90.855469 111.210938 L 90.855469 121.398438 L 101.023438 121.398438 L 101.023438 151.886719 L 111.214844 151.886719 L 111.214844 111.210938 L 131.574219 111.210938 L 131.574219 101.019531 L 101.039062 101.019531 L 101.039062 60.265625 L 111.230469 60.265625 L 111.230469 70.453125 L 121.402344 70.453125 L 121.402344 80.640625 L 111.230469 80.640625 L 111.230469 101.019531 L 121.402344 101.019531 L 121.402344 80.640625 L 131.574219 80.640625 L 131.574219 80.621094 L 151.910156 80.621094 L 151.910156 101.039062 L 141.746094 101.039062 L 141.746094 111.210938 L 162.285156 111.210938 L 162.285156 130.628906 L 172.457031 130.628906 L 172.457031 101.019531 L 162.285156 101.019531 L 162.285156 101.039062 L 162.101562 101.039062 L 162.101562 40.84375 L 172.28125 40.84375 L 172.28125 51.011719 L 182.476562 51.011719 L 182.476562 30.671875 L 181.582031 30.671875 L 181.582031 30.652344 L 162.101562 30.652344 L 162.101562 20.503906 L 101.039062 20.503906 L 101.039062 10.3125 L 151.914062 10.3125 L 151.914062 0.125 L 90.886719 0.125 L 90.886719 10.308594 L 90.847656 10.308594 L 90.847656 101.019531 " fill-opacity="1" fill-rule="nonzero"/></g><g clip-path="url(#36143ab29f)"><path fill="#000000" d="M 182.464844 20.5 L 182.464844 0.125 L 172.292969 0.125 L 172.292969 10.332031 L 162.101562 10.332031 L 162.101562 20.5 L 182.464844 20.5 " fill-opacity="1" fill-rule="nonzero"/></g><path fill="#000000" d="M 10.34375 121.398438 L 0.152344 121.398438 L 0.152344 131.589844 L 10.34375 131.589844 L 10.34375 151.886719 L 39.945312 151.886719 L 39.945312 162.074219 L 10.34375 162.074219 L 10.34375 172.265625 L 40.898438 172.265625 L 40.898438 182.457031 L 70.496094 182.457031 L 70.496094 172.265625 L 50.117188 172.265625 L 50.117188 141.695312 L 20.515625 141.695312 L 20.515625 131.589844 L 50.117188 131.589844 L 50.117188 121.398438 L 60.308594 121.398438 L 60.308594 111.210938 L 10.34375 111.210938 L 10.34375 121.398438 " fill-opacity="1" fill-rule="nonzero"/><path fill="#000000" d="M 10.324219 101.019531 L 0.152344 101.019531 L 0.152344 111.210938 L 10.324219 111.210938 L 10.324219 101.019531 " fill-opacity="1" fill-rule="nonzero"/><path fill="#000000" d="M 80.6875 172.265625 L 90.859375 172.265625 L 90.859375 151.886719 L 70.515625 151.886719 L 70.515625 162.074219 L 80.6875 162.074219 L 80.6875 172.265625 " fill-opacity="1" fill-rule="nonzero"/><path fill="#000000" d="M 10.34375 90.832031 L 10.34375 101.019531 L 20.515625 101.019531 L 20.515625 90.832031 L 10.34375 90.832031 " fill-opacity="1" fill-rule="nonzero"/><path fill="#000000" d="M 50.117188 90.832031 L 50.117188 101.019531 L 60.289062 101.019531 L 60.289062 90.832031 L 50.117188 90.832031 " fill-opacity="1" fill-rule="nonzero"/><path fill="#000000" d="M 141.746094 90.832031 L 131.574219 90.832031 L 131.574219 101.019531 L 141.746094 101.019531 L 141.746094 90.832031 " fill-opacity="1" fill-rule="nonzero"/><path fill="#000000" d="M 162.285156 130.628906 L 152.089844 130.628906 L 152.089844 172.265625 L 162.285156 172.265625 L 162.285156 130.628906 " fill-opacity="1" fill-rule="nonzero"/><path fill="#000000" d="M 121.386719 162.074219 L 121.386719 151.933594 L 131.53125 151.933594 L 131.53125 141.742188 L 121.363281 141.742188 L 121.363281 151.886719 L 111.214844 151.886719 L 111.214844 162.074219 L 121.386719 162.074219 " fill-opacity="1" fill-rule="nonzero"/><path fill="#000000" d="M 121.390625 121.390625 L 121.390625 131.578125 L 131.5625 131.578125 L 131.5625 141.769531 L 141.734375 141.769531 L 141.734375 121.390625 L 121.390625 121.390625 " fill-opacity="1" fill-rule="nonzero"/><path fill="#000000" d="M 90.859375 131.59375 L 70.511719 131.59375 L 70.511719 121.40625 L 60.339844 121.40625 L 60.339844 141.785156 L 90.859375 141.785156 L 90.859375 131.59375 " fill-opacity="1" fill-rule="nonzero"/><path fill="#000000" d="M 60.289062 162.074219 L 60.289062 151.886719 L 50.117188 151.886719 L 50.117188 162.074219 L 60.289062 162.074219 " fill-opacity="1" fill-rule="nonzero"/><path fill="#000000" d="M 212.222656 140.820312 L 212.222656 151.011719 L 222.394531 151.011719 L 222.394531 140.820312 L 232.566406 140.820312 L 232.566406 130.628906 L 222.394531 130.628906 L 222.394531 120.441406 L 212.222656 120.441406 L 212.222656 130.628906 L 222.394531 130.628906 L 222.394531 140.820312 L 212.222656 140.820312 " fill-opacity="1" fill-rule="nonzero"/><path fill="#000000" d="M 182.539062 212.945312 L 172.347656 212.945312 L 172.347656 233.28125 L 173.242188 233.28125 L 173.242188 233.304688 L 192.722656 233.304688 L 192.722656 223.113281 L 182.539062 223.113281 L 182.539062 212.945312 " fill-opacity="1" fill-rule="nonzero"/><path fill="#000000" d="M 172.46875 172.265625 L 162.296875 172.265625 L 162.296875 182.457031 L 172.46875 182.457031 L 172.46875 192.644531 L 182.640625 192.644531 L 182.640625 172.265625 L 172.46875 172.265625 " fill-opacity="1" fill-rule="nonzero"/><path fill="#000000" d="M 141.734375 223.117188 L 131.5625 223.117188 L 131.5625 233.308594 L 151.90625 233.308594 L 151.90625 232.414062 L 151.925781 232.414062 L 151.925781 212.9375 L 141.734375 212.9375 L 141.734375 223.117188 " fill-opacity="1" fill-rule="nonzero"/><g clip-path="url(#a86bcd3061)"><path fill="#000000" d="M 121.402344 273.117188 L 151.953125 273.117188 L 151.953125 262.929688 L 121.402344 262.929688 L 121.402344 273.117188 " fill-opacity="1" fill-rule="nonzero"/></g><g clip-path="url(#e7d26fa216)"><path fill="#000000" d="M 111.214844 252.703125 L 111.214844 252.742188 L 101.023438 252.742188 L 101.023438 262.921875 L 90.851562 262.921875 L 90.851562 273.113281 L 111.195312 273.113281 L 111.195312 272.222656 L 111.214844 272.222656 L 111.214844 262.890625 L 121.386719 262.890625 L 121.386719 242.511719 L 111.214844 242.511719 L 111.214844 252.703125 " fill-opacity="1" fill-rule="nonzero"/></g><path fill="#000000" d="M 90.851562 242.554688 L 90.851562 252.742188 L 101.023438 252.742188 L 101.023438 242.554688 L 90.851562 242.554688 " fill-opacity="1" fill-rule="nonzero"/><path fill="#000000" d="M 172.46875 80.632812 L 182.640625 80.632812 L 182.640625 61.199219 L 172.46875 61.199219 L 172.46875 80.632812 " fill-opacity="1" fill-rule="nonzero"/><path fill="#000000" d="M 141.710938 151.917969 L 131.539062 151.917969 L 131.539062 162.109375 L 141.710938 162.109375 L 141.710938 151.917969 " fill-opacity="1" fill-rule="nonzero"/><g clip-path="url(#6c0c8793ee)"><path fill="#000000" d="M 273.175781 212.0625 L 262.988281 212.0625 L 262.988281 201.960938 L 262.984375 201.960938 L 262.984375 191.769531 L 233.386719 191.769531 L 233.386719 181.578125 L 262.984375 181.578125 L 262.984375 171.390625 L 232.609375 171.390625 L 232.609375 161.199219 L 242.78125 161.199219 L 242.78125 151.011719 L 232.609375 151.011719 L 232.609375 161.199219 L 212.222656 161.199219 L 212.222656 130.628906 L 202.347656 130.628906 L 202.347656 121.398438 L 192.179688 121.398438 L 192.179688 130.628906 L 172.457031 130.628906 L 172.457031 140.820312 L 202.054688 140.820312 L 202.054688 151.011719 L 172.457031 151.011719 L 172.457031 161.199219 L 182.640625 161.199219 L 182.640625 172.265625 L 192.8125 172.265625 L 192.8125 161.199219 L 203.007812 161.199219 L 203.007812 171.390625 L 223.214844 171.390625 L 223.214844 201.960938 L 252.816406 201.960938 L 252.816406 212.0625 L 223.214844 212.0625 L 223.214844 222.253906 L 202.832031 222.253906 L 202.832031 232.441406 L 252.796875 232.441406 L 252.796875 222.253906 L 273.175781 222.253906 L 273.175781 212.0625 " fill-opacity="1" fill-rule="nonzero"/></g><g clip-path="url(#6f167295c0)"><path fill="#000000" d="M 172.316406 262.859375 L 162.183594 262.859375 L 162.183594 253.667969 L 163.023438 253.667969 L 163.023438 253.6875 L 182.324219 253.6875 L 182.324219 262.859375 Z M 182.503906 243.496094 L 172.324219 243.496094 L 172.324219 233.328125 L 162.183594 233.328125 L 162.183594 233.320312 L 152.015625 233.320312 L 152.015625 243.507812 L 162.128906 243.507812 L 162.128906 252.699219 L 152.015625 252.699219 L 152.015625 262.886719 L 162.175781 262.886719 L 162.175781 273.046875 L 182.488281 273.046875 L 182.488281 263.042969 L 192.496094 263.042969 L 192.496094 252.851562 L 182.503906 252.851562 L 182.503906 243.496094 " fill-opacity="1" fill-rule="nonzero"/></g><path fill="#000000" d="M 141.761719 252.730469 L 141.761719 242.539062 L 131.589844 242.539062 L 131.589844 252.730469 L 141.761719 252.730469 " fill-opacity="1" fill-rule="nonzero"/><g clip-path="url(#75bed9a23f)"><path fill="#000000" d="M 232.566406 262.921875 L 222.394531 262.921875 L 222.394531 273.113281 L 242.738281 273.113281 L 242.738281 272.222656 L 242.761719 272.222656 L 242.761719 252.742188 L 232.566406 252.742188 L 232.566406 262.921875 " fill-opacity="1" fill-rule="nonzero"/></g><g clip-path="url(#5d793cdf8d)"><path fill="#000000" d="M 263.136719 252.730469 L 273.308594 252.730469 L 273.308594 242.539062 L 263.136719 242.539062 L 263.136719 252.730469 " fill-opacity="1" fill-rule="nonzero"/></g><path fill="#000000" d="M 202.832031 252.730469 L 213.023438 252.730469 L 213.023438 242.539062 L 202.832031 242.539062 L 202.832031 252.730469 " fill-opacity="1" fill-rule="nonzero"/><path fill="#000000" d="M 263.445312 101.011719 L 243.070312 101.011719 L 243.070312 90.832031 L 232.898438 90.832031 L 232.898438 101.011719 L 213.335938 101.011719 L 213.335938 90.832031 L 203.164062 90.832031 L 203.164062 90.839844 L 172.457031 90.839844 L 172.457031 101.011719 L 192.179688 101.011719 L 192.179688 111.199219 L 242.78125 111.199219 L 242.78125 120.441406 L 252.949219 120.441406 L 252.949219 111.199219 L 263.445312 111.199219 L 263.445312 101.011719 " fill-opacity="1" fill-rule="nonzero"/><g clip-path="url(#1aa6d785cc)"><path fill="#000000" d="M 263.445312 90.832031 L 263.445312 101.019531 L 273.617188 101.019531 L 273.617188 90.832031 L 263.445312 90.832031 " fill-opacity="1" fill-rule="nonzero"/></g><path fill="#000000" d="M 242.78125 161.199219 L 252.949219 161.199219 L 252.949219 151.011719 L 263.121094 151.011719 L 263.121094 140.820312 L 252.949219 140.820312 L 252.949219 151.011719 L 242.78125 151.011719 L 242.78125 161.199219 " fill-opacity="1" fill-rule="nonzero"/><path fill="#000000" d="M 252.949219 130.628906 L 242.78125 130.628906 L 242.78125 140.820312 L 252.949219 140.820312 L 252.949219 130.628906 " fill-opacity="1" fill-rule="nonzero"/><path fill="#000000" d="M 182.007812 111.210938 L 182.007812 121.398438 L 192.179688 121.398438 L 192.179688 111.210938 L 182.007812 111.210938 " fill-opacity="1" fill-rule="nonzero"/><path fill="#000000" d="M 213.023438 192.644531 L 213.023438 182.476562 L 192.640625 182.476562 L 192.640625 202.75 L 172.441406 202.75 L 172.441406 192.644531 L 162.269531 192.644531 L 162.269531 202.75 L 151.925781 202.75 L 151.925781 182.457031 L 141.734375 182.457031 L 141.734375 192.644531 L 121.386719 192.644531 L 121.386719 182.457031 L 131.5625 182.457031 L 131.5625 172.265625 L 111.214844 172.265625 L 111.214844 162.074219 L 101.042969 162.074219 L 101.042969 182.457031 L 111.214844 182.457031 L 111.214844 192.644531 L 90.894531 192.644531 L 90.894531 202.835938 L 101.035156 202.835938 L 101.035156 212.9375 L 111.207031 212.9375 L 111.207031 202.835938 L 121.363281 202.835938 L 121.363281 223.128906 L 101.035156 223.128906 L 101.035156 212.9375 L 90.863281 212.9375 L 90.863281 233.320312 L 121.382812 233.320312 L 121.382812 223.128906 L 131.53125 223.128906 L 131.53125 202.835938 L 151.925781 202.835938 L 151.925781 212.9375 L 192.707031 212.9375 L 192.707031 202.8125 L 202.832031 202.8125 L 202.832031 212.9375 L 213.023438 212.9375 L 213.023438 202.75 L 202.832031 202.75 L 202.832031 192.644531 L 213.023438 192.644531 " fill-opacity="1" fill-rule="nonzero"/></svg>